<svg id="Capa_1" enable-background="new 0 0 512 512" height="512" viewBox="0 0 512 512" width="512" xmlns="http://www.w3.org/2000/svg"><g><path d="m425.451 512h-364.688c-10.497 0-19.006-8.509-19.006-19.006v-364.688c0-10.497 8.509-19.006 19.006-19.006h364.688c10.497 0 19.006 8.509 19.006 19.006v364.688c0 10.496-8.509 19.006-19.006 19.006z" fill="#3a4443"/><path d="m425.451 109.299h-122.698v402.701h122.698c10.497 0 19.007-8.51 19.007-19.006v-364.688c0-10.497-8.51-19.007-19.007-19.007z" fill="#2c332f"/><g><g><g><g><g><path d="m305.368 5.179 104.749 124.835c5.149 6.137 4.357 15.275-1.724 20.477l-229.199 192.321c-6.193 5.097-15.337 4.297-20.487-1.84l-104.749-124.835c-5.143-6.13-4.343-15.274 1.793-20.423l229.2-192.322c6.136-5.149 15.274-4.343 20.417 1.787z" fill="#79ff79"/><path d="m305.368 5.179 104.749 124.835c5.149 6.137 4.357 15.275-1.724 20.477l-229.199 192.321c-6.193 5.097-15.337 4.297-20.487-1.839l-62.716-74.743-.005-.021c48.157 12.092 101.248 1.708 142.197-32.653 64.194-53.865 75.548-147.328 28.313-214.679l18.454-15.485c6.137-5.149 15.275-4.343 20.418 1.787z" fill="#29e088"/><path d="m305.368 5.179 104.749 124.835c5.149 6.137 4.357 15.275-1.724 20.477l-114.759 96.295c-.162.136-.377-.067-.253-.238 47.877-65.56 47.677-162.036-6.163-226.201-3.127-3.727-6.377-7.29-9.729-10.693l7.462-6.261c6.136-5.15 15.274-4.344 20.417 1.786z" fill="#0cc166"/><path d="m326.893 66.908 55.212 65.8c2.573 3.066 2.173 7.638-.893 10.211l-174.116 146.1c-2.392 2.008-6.35 2.058-8.86.2-10.454-7.739-23.705-10.384-36.109-7.634-3.683.82-7.537.421-10.932-1.234l-.005.005c-3.089-1.508-6.632-1.523-9.675-.165-1.504.671-3.264.316-4.322-.945l-55.212-65.8c-2.573-3.066-2.173-7.638.893-10.211l176.273-147.912c1.333-1.119 3.286-1.147 4.62-.029 10.74 8.997 24.948 12.21 38.19 9.274 3.683-.82 7.538-.421 10.932 1.234l.006-.005c3.089 1.508 6.632 1.523 9.675.165 1.504-.67 3.264-.316 4.323.946z" fill="#12adb5"/><path d="m326.889 66.907 55.215 65.803c2.572 3.065 2.172 7.63-.893 10.202l-174.12 146.104c-2.388 2.004-6.346 2.062-8.861.203-10.453-7.741-23.699-10.384-36.102-7.631-3.68.818-7.538.42-10.934-1.233-1.539-.755-3.205-1.144-4.856-1.16-1.657-.023-3.306.318-4.822.995-1.509.671-3.266.321-4.329-.945l-6.927-8.255c37.983 1.165 76.512-11.08 107.917-37.433 50.333-42.234 68.178-108.816 50.771-168.059 4.329.325 8.713.02 13.005-.926 3.688-.824 7.545-.426 10.934 1.233l.007-.006c3.092 1.512 6.633 1.518 9.679.165 1.496-.673 3.259-.316 4.316.943z" fill="#0d8ba0"/><path d="m326.895 66.907 55.215 65.803c2.571 3.064 2.171 7.631-.893 10.202l-61.69 51.764c13.171-41.445 11.941-87.456-4.563-128.104 2.544.681 5.229.451 7.615-.609 1.496-.671 3.26-.315 4.316.944z" fill="#02718c"/><g><path d="m151.325 190.651-29.211 24.511c-4.304 3.611-10.72 3.05-14.332-1.254-3.611-4.304-3.05-10.72 1.254-14.332l29.211-24.511c4.304-3.611 10.72-3.05 14.332 1.254 3.611 4.305 3.05 10.721-1.254 14.332z" fill="#c2ffc2"/><path d="m129.778 182.172-8.024 6.733c-4.304 3.611-4.865 10.028-1.254 14.332 3.611 4.304 10.028 4.865 14.332 1.254l8.024-6.733c4.304-3.611 4.865-10.028 1.254-14.332-3.611-4.304-10.028-4.865-14.332-1.254z" fill="#efe"/><path d="m355.05 146.575-29.211 24.511c-4.304 3.611-10.72 3.05-14.332-1.254-3.611-4.304-3.05-10.72 1.254-14.332l29.211-24.511c4.304-3.611 10.72-3.05 14.332 1.254 3.611 4.305 3.049 10.721-1.254 14.332z" fill="#c2ffc2"/><path d="m335.016 136.827-6.146 5.157c-4.304 3.611-4.865 10.028-1.254 14.332 3.611 4.304 10.028 4.865 14.332 1.254l6.146-5.157c4.304-3.611 4.865-10.028 1.254-14.332-3.612-4.304-10.029-4.866-14.332-1.254z" fill="#efe"/></g><g><g><circle cx="292.292" cy="39.304" fill="#c2ffc2" r="13.472"/><circle cx="289.134" cy="41.955" fill="#efe" r="9.349"/></g><g><circle cx="171.794" cy="306.848" fill="#c2ffc2" r="13.472"/><circle cx="168.635" cy="309.498" fill="#efe" r="9.349"/></g></g></g></g><path d="m209.215 66.946-116.265 97.558c-4.905 4.116-5.545 11.429-1.429 16.334 4.116 4.905 11.429 5.545 16.334 1.429l116.265-97.558c4.905-4.116 5.545-11.429 1.429-16.334-4.116-4.905-11.429-5.545-16.334-1.429z" fill="#c2ffc2"/><path d="m181.776 89.97-60.684 50.92c-4.905 4.116-5.545 11.429-1.429 16.334 4.116 4.905 11.429 5.545 16.334 1.429l60.684-50.92c4.905-4.116 5.545-11.429 1.429-16.334-4.116-4.905-11.429-5.545-16.334-1.429z" fill="#efe"/><path d="m141.64 248.456-18.848-22.462c-4.116-4.905-11.429-5.545-16.334-1.429l-.007.006c-4.905 4.116-5.545 11.429-1.429 16.334l18.848 22.462c4.116 4.905 11.429 5.545 16.334 1.429l.007-.006c4.905-4.116 5.545-11.429 1.429-16.334z" fill="#3cd3d3"/><path d="m132.779 237.895-4.964-5.916c-4.118-4.907-11.433-5.547-16.34-1.43-4.907 4.118-5.547 11.433-1.43 16.34l4.964 5.916c4.118 4.907 11.433 5.547 16.34 1.43 4.907-4.117 5.547-11.432 1.43-16.34z" fill="#57eae6"/></g><g><g><circle cx="232.043" cy="173.076" fill="#0d8ba0" r="57.516"/><path d="m276.101 136.106c20.418 24.333 17.245 60.609-7.089 81.028-14.021 11.765-32.008 15.698-48.644 12.259 11.248-.51 22.423-4.582 31.718-12.382 22.501-18.88 25.435-52.424 6.555-74.925-15.345-18.288-40.385-23.653-61.3-14.873 24.27-18.398 58.965-14.697 78.76 8.893z" fill="#02718c"/><g><path d="m234.564 164.448-1.906 1.6-8.471-10.096 8.884-7.454c2.111-1.771 2.386-4.918.615-7.028s-4.917-2.386-7.028-.615l-8.884 7.454-2.335-2.783c-1.771-2.11-4.917-2.386-7.028-.615s-2.386 4.918-.615 7.028l2.335 2.783-1.906 1.599c-6.998 5.872-7.914 16.342-2.042 23.34s16.342 7.913 23.34 2.042l1.906-1.599 8.471 10.095-8.883 7.454c-2.111 1.771-2.386 4.918-.615 7.028s4.917 2.386 7.028.615l8.883-7.454 2.336 2.783c1.771 2.11 4.917 2.386 7.028.615s2.386-4.918.615-7.028l-2.336-2.783 1.906-1.6c6.998-5.872 7.913-16.342 2.042-23.339-5.872-6.997-16.342-7.913-23.34-2.042zm-11.455 9.612c-2.783 2.336-6.948 1.972-9.283-.812-2.336-2.783-1.971-6.948.812-9.284l1.906-1.599 8.471 10.096zm26.339 8.127-1.906 1.6-8.471-10.095 1.906-1.6c2.783-2.336 6.947-1.971 9.283.812s1.972 6.947-.812 9.283z" fill="#79ff79"/><path d="m246.313 194.211h9.978v3.633h-9.978z" fill="#29e088" transform="matrix(.766 -.643 .643 .766 -67.211 207.395)"/><g><path d="m234.496 175.356h9.978v13.178h-9.978z" fill="#29e088" transform="matrix(.766 -.643 .643 .766 -60.923 196.505)"/><path d="m232.233 176.18h9.978v6.136h-9.978z" fill="#0cc166" transform="matrix(.766 -.643 .643 .766 -59.719 194.419)"/><path d="m217.929 158.23h9.978v7.944h-9.978z" fill="#29e088" transform="matrix(.766 -.643 .643 .766 -52.108 181.237)"/></g><path d="m223.109 174.06c-1.931 1.62-4.524 1.938-6.711 1.052-1.695-.687-3.631-.362-5.032.814-2.822 2.368-2.234 6.968 1.17 8.377 5.523 2.285 12.099 1.502 16.987-2.599l11.455-9.612c1.9-1.594 4.442-1.93 6.608-1.098 1.669.641 3.555.299 4.925-.85 2.936-2.464 2.095-7.158-1.494-8.501-5.408-2.023-11.721-1.164-16.452 2.806z" fill="#c2ffc2"/></g><path d="m207.795 148.308h9.978v3.633h-9.978z" fill="#29e088" transform="matrix(.766 -.643 .643 .766 -46.716 171.897)"/><path d="m214.013 216.783c2.023-4.218.557-9.22-3.331-11.822-2.939-1.967-5.652-4.376-8.037-7.218-9.889-11.785-11.46-27.814-5.355-40.915 1.921-4.121.498-9.035-3.228-11.642l-.15-.105c-4.796-3.355-11.522-1.643-13.995 3.663-9.149 19.628-6.773 43.618 8.066 61.302 3.538 4.216 7.551 7.796 11.896 10.729 4.866 3.285 11.511 1.476 14.05-3.818.029-.059.057-.116.084-.174z" fill="#12adb5"/><path d="m197.357 189.49c-3.13-6.618-4.234-13.9-3.39-20.961.579-4.848-2.638-9.336-7.409-10.371l-.188-.041c-5.416-1.175-10.746 2.516-11.415 8.018-1.289 10.608.364 21.554 5.074 31.509 2.533 5.354 9.264 7.144 14.091 3.712.052-.037.104-.074.156-.111 3.737-2.656 5.042-7.61 3.081-11.755z" fill="#3cd3d3"/></g></g></g></g><path d="m41.757 223.78v269.213c0 10.497 8.509 19.006 19.006 19.006h364.688c10.497 0 19.006-8.509 19.006-19.006v-269.213z" fill="#4a5955"/><path d="m302.753 223.78v288.22h122.698c10.497 0 19.006-8.51 19.006-19.006v-269.214z" fill="#3a4443"/><g><g><path d="m340.211 133.1 124.835 104.749c6.137 5.149 6.943 14.287 1.858 20.465l-192.321 229.2c-5.214 6.095-14.358 6.895-20.495 1.746l-124.835-104.75c-6.13-5.143-6.93-14.288-1.78-20.425l192.321-229.2c5.15-6.136 14.288-6.929 20.417-1.785z" fill="#ffdbcf"/><path d="m340.211 133.1 124.835 104.749c6.137 5.149 6.943 14.286 1.858 20.465l-192.32 229.199c-5.214 6.095-14.358 6.895-20.495 1.746l-74.743-62.716-.008-.019c49.525 3.546 100.006-15.9 134.367-56.849 53.865-64.194 48.817-158.209-9.396-216.334l15.485-18.454c5.15-6.138 14.288-6.931 20.417-1.787z" fill="#ffccb7"/><path d="m340.211 133.1 124.835 104.749c6.137 5.149 6.943 14.287 1.858 20.465l-96.294 114.759c-.136.162-.383-.001-.29-.19 35.765-72.878 18.816-167.853-45.349-221.694-3.727-3.127-7.546-6.072-11.438-8.841l6.261-7.462c5.15-6.137 14.288-6.93 20.417-1.786z" fill="#fcad97"/></g><g><path d="m452.743 257.087c4.923 4.131 5.565 11.471 1.434 16.394l-42.485 50.632c-4.131 4.923-11.471 5.565-16.394 1.434-4.923-4.131-5.565-11.471-1.434-16.394l42.485-50.632c4.131-4.923 11.471-5.565 16.394-1.434z" fill="#ffccb7"/><path d="m437.215 275.593c4.923 4.131 5.565 11.471 1.434 16.394l-11.899 14.181c-4.131 4.923-11.471 5.565-16.394 1.434-4.923-4.131-5.565-11.471-1.434-16.394l11.899-14.181c4.131-4.923 11.471-5.565 16.394-1.434z" fill="#ffdbcf"/></g><g><g><g><g><g><path d="m372.157 190.182 65.8 55.212c3.066 2.573 3.466 7.145.893 10.211l-146.1 174.116c-2.008 2.392-5.896 3.129-8.691 1.735-11.639-5.806-25.148-6.11-36.886-1.248-3.485 1.447-7.35 1.723-10.98.683l-.005.005c-3.304-.949-6.796-.348-9.556 1.518-1.364.922-3.159.878-4.421-.18l-65.8-55.212c-3.066-2.573-3.466-7.145-.893-10.211l147.911-176.274c1.119-1.333 3.037-1.7 4.545-.831 12.139 6.995 26.689 7.693 39.221 2.502 3.485-1.447 7.35-1.723 10.98-.683l.005-.006c3.304.949 6.796.348 9.556-1.518 1.365-.921 3.16-.877 4.421.181z" fill="#fe255f"/><path d="m372.154 190.182 65.803 55.215c3.065 2.572 3.464 7.137.893 10.202l-146.105 174.121c-2.004 2.388-5.891 3.133-8.691 1.738-11.638-5.808-25.142-6.111-36.878-1.246-3.482 1.445-7.35 1.722-10.983.684-1.647-.476-3.355-.57-4.984-.299-1.636.265-3.201.887-4.576 1.817-1.37.923-3.161.884-4.427-.179l-8.255-6.927c37.608-5.449 73.425-24.198 99.777-55.603 42.234-50.333 48.247-119.002 20.817-174.323 4.32-.432 8.585-1.493 12.647-3.171 3.489-1.452 7.356-1.73 10.983-.684l.006-.007c3.308.952 6.796.343 9.56-1.518 1.355-.921 3.153-.876 4.413.18z" fill="#e01152"/><path d="m372.154 190.182 65.803 55.215c3.065 2.572 3.464 7.137.893 10.202l-53.315 63.539c7.934-43.548-.618-89.181-24.794-127.195 2.488.14 4.943-.554 7.001-1.941 1.354-.921 3.152-.876 4.412.18z" fill="#c40047"/><g><path d="m220.745 342.533-24.511 29.211c-3.611 4.304-10.028 4.865-14.332 1.254-4.304-3.611-4.865-10.028-1.254-14.332l24.511-29.211c3.611-4.304 10.028-4.865 14.332-1.254 4.304 3.612 4.865 10.028 1.254 14.332z" fill="#ffdbcf"/><path d="m198.053 337.924-6.733 8.024c-3.611 4.304-3.05 10.72 1.254 14.332 4.304 3.611 10.72 3.05 14.332-1.254l6.733-8.024c3.611-4.304 3.05-10.72-1.254-14.332-4.304-3.611-10.721-3.05-14.332 1.254z" fill="#ffece6"/><path d="m413.721 263.75-24.511 29.211c-3.611 4.304-10.028 4.865-14.332 1.254-4.304-3.611-4.865-10.028-1.254-14.332l24.511-29.211c3.611-4.304 10.028-4.865 14.332-1.254 4.304 3.612 4.865 10.028 1.254 14.332z" fill="#ffdbcf"/><path d="m392.298 257.629-5.157 6.146c-3.611 4.304-3.05 10.72 1.254 14.332 4.304 3.611 10.72 3.05 14.332-1.254l5.157-6.146c3.611-4.304 3.05-10.72-1.254-14.332-4.304-3.612-10.72-3.05-14.332 1.254z" fill="#ffece6"/></g><g><g><circle cx="333.289" cy="169.007" fill="#e01152" r="13.472"/><circle cx="330.639" cy="172.165" fill="#fe255f" r="9.349"/></g><g><circle cx="261.08" cy="453.41" fill="#e01152" r="13.472"/><circle cx="258.43" cy="456.568" fill="#fe255f" r="9.349"/></g></g></g></g><path d="m256.274 210.654-97.558 116.265c-4.116 4.905-3.476 12.218 1.429 16.334 4.905 4.116 12.218 3.476 16.334-1.429l97.558-116.265c4.116-4.905 3.476-12.218-1.429-16.334-4.905-4.115-12.218-3.476-16.334 1.429z" fill="#ffece6"/><path d="m233.25 238.093-50.92 60.684c-4.116 4.905-3.476 12.218 1.429 16.334 4.905 4.116 12.218 3.476 16.334-1.429l50.92-60.684c4.116-4.905 3.476-12.218-1.429-16.334-4.905-4.116-12.218-3.476-16.334 1.429z" fill="#fff7f5"/><path d="m221.245 401.142-22.462-18.848c-4.905-4.116-12.218-3.476-16.334 1.429l-.006.007c-4.116 4.905-3.476 12.218 1.429 16.334l22.462 18.848c4.905 4.116 12.218 3.476 16.334-1.429l.006-.007c4.116-4.906 3.476-12.219-1.429-16.334z" fill="#fc709b"/><path d="m210.684 392.28-5.916-4.964c-4.907-4.118-12.223-3.477-16.34 1.43-4.118 4.907-3.477 12.223 1.43 16.34l5.916 4.964c4.907 4.118 12.223 3.477 16.34-1.43 4.117-4.907 3.477-12.223-1.43-16.34z" fill="#f7a6c1"/></g><g><g><circle cx="297.184" cy="311.208" fill="#ffdbcf" r="57.516"/><path d="m334.153 267.15c24.333 20.418 27.507 56.694 7.089 81.028-11.765 14.021-28.796 21.018-45.776 20.52 10.989-2.456 21.286-8.406 29.086-17.701 18.88-22.501 15.946-56.044-6.555-74.925-18.288-15.345-43.878-16.281-62.951-4.002 20.706-22.335 55.516-24.715 79.107-4.92z" fill="#ffccb7"/><path d="m287.018 357.382c1.26-4.505-1.052-9.177-5.333-11.064-3.236-1.427-6.326-3.328-9.168-5.713-11.785-9.889-16.116-25.401-12.378-39.364 1.176-4.392-1.078-8.984-5.2-10.904l-.166-.078c-5.306-2.472-11.632.383-13.146 6.037-5.601 20.919.904 44.132 18.588 58.97 4.216 3.538 8.79 6.367 13.579 8.501 5.363 2.39 11.593-.546 13.174-6.2.016-.062.033-.124.05-.185z" fill="#ffece6"/><path d="m265.876 333.396c-4.232-5.974-6.583-12.954-6.978-20.054-.271-4.875-4.219-8.736-9.097-8.927l-.193-.008c-5.538-.217-10.146 4.344-9.849 9.878.573 10.671 4.101 21.163 10.468 30.149 3.424 4.832 10.364 5.427 14.521 1.209.045-.045.09-.091.134-.136 3.22-3.264 3.644-8.369.994-12.111z" fill="#fff7f5"/></g></g></g><g><g><g><g><path d="m336.055 320.321-20.972 24.993c-2.534 3.02-6.602 4.206-10.362 3.02s-6.412-4.49-6.755-8.418c-.094-1.073-.6-2.045-1.425-2.737l-23.91-20.063c-8.714-7.312-9.854-20.349-2.543-29.062 7.312-8.714 20.349-9.854 29.063-2.543 2.7 2.265 3.051 6.29.786 8.99-2.265 2.699-6.29 3.052-8.99.786-3.323-2.789-8.295-2.354-11.084.97-2.788 3.322-2.353 8.294.97 11.083l23.91 20.063c1.787 1.499 3.214 3.314 4.228 5.339l17.306-20.625c2.265-2.699 6.29-3.052 8.99-.786 2.702 2.266 3.053 6.291.788 8.99z" fill="#fe255f"/></g><g><path d="m320.195 319.37-10.948 13.047c-2.265 2.7-1.913 6.724.786 8.99 2.7 2.265 6.724 1.913 8.99-.786l10.948-13.047c2.265-2.7 1.913-6.724-.786-8.99-2.7-2.266-6.725-1.914-8.99.786z" fill="#fc709b"/></g><g><path d="m290.189 324.997h12.762v7.755h-12.762z" fill="#e01152" transform="matrix(.643 -.766 .766 .643 -145.994 344.664)"/></g><g><path d="m303.709 314.335-15.386 18.336c-2.265 2.699-6.29 3.052-8.99.786-2.7-2.265-3.051-6.29-.786-8.99l15.386-18.336c2.265-2.699 6.29-3.052 8.99-.786 2.699 2.265 3.051 6.291.786 8.99z" fill="#fe255f"/></g><g><path d="m286.858 314.563-6.068 7.231c-2.265 2.7-1.913 6.724.786 8.99 2.7 2.265 6.724 1.913 8.99-.786l6.068-7.231c2.265-2.7 1.913-6.724-.786-8.99-2.7-2.265-6.725-1.913-8.99.786z" fill="#fc709b"/></g></g></g></g></g></g><g><g><g><g><circle cx="149.959" cy="317.823" fill="#ffe059" r="81.928"/><path d="m227.028 290.028c15.326 42.495-6.778 89.538-49.273 104.865-17.82 6.427-36.44 6.274-53.186.79 12.152 1.671 24.865.509 37.184-3.934 40.717-14.685 61.896-59.759 47.21-100.481-12.879-35.71-49.132-56.389-85.319-51.032 42.098-14.294 88.235 7.79 103.384 49.792z" fill="#ffc751"/><circle cx="149.959" cy="317.823" fill="#ff993a" r="57.192"/><path d="m203.756 298.42c10.716 29.713-4.682 62.484-34.395 73.2-17.121 6.175-35.258 3.68-49.607-5.233 10.674 3.38 22.5 3.41 33.85-.683 27.475-9.909 41.713-40.212 31.804-67.687-8.054-22.331-29.586-35.922-52.118-34.897 28.962-8.854 60.077 6.495 70.466 35.3z" fill="#f97c15"/><g><path d="m155.27 310.634-2.328.84-4.446-12.327 10.848-3.912c2.577-.93 3.913-3.772 2.983-6.349-.929-2.577-3.772-3.913-6.349-2.983l-10.848 3.912-1.226-3.398c-.929-2.577-3.772-3.913-6.349-2.983s-3.913 3.772-2.983 6.349l1.226 3.398-2.327.839c-8.544 3.082-12.989 12.541-9.908 21.086 3.082 8.544 12.541 12.989 21.086 9.907l2.327-.839 4.446 12.327-10.847 3.912c-2.577.93-3.913 3.772-2.983 6.349.929 2.577 3.772 3.913 6.349 2.983l10.847-3.912 1.226 3.399c.929 2.577 3.772 3.913 6.349 2.983s3.913-3.772 2.983-6.349l-1.226-3.399 2.328-.84c8.544-3.082 12.989-12.54 9.907-21.085s-12.541-12.989-21.085-9.908zm-13.988 5.045c-3.399 1.226-7.161-.542-8.387-3.94-1.226-3.399.542-7.161 3.941-8.387l2.327-.839 4.446 12.327zm21.8 16.615-2.328.84-4.446-12.327 2.328-.84c3.399-1.226 7.16.542 8.386 3.941 1.225 3.399-.542 7.16-3.94 8.386z" fill="#ffe059"/><path d="m155.106 344.042h9.921v3.613h-9.921z" fill="#ffc751" transform="matrix(.941 -.339 .339 .941 -107.842 74.818)"/><g><path d="m148.904 322.101h9.921v13.104h-9.921z" fill="#ffc751" transform="matrix(.941 -.339 .339 .941 -102.376 71.694)"/><path d="m147.716 322.309h9.921v6.101h-9.921z" fill="#ffaf40" transform="matrix(.941 -.339 .339 .941 -101.329 71.096)"/><path d="m140.209 300.596h9.921v7.899h-9.921z" fill="#ffc751" transform="matrix(.941 -.339 .339 .941 -94.713 67.314)"/></g><path d="m141.282 315.679c-2.358.85-4.887.258-6.625-1.319-1.347-1.222-3.265-1.583-4.976-.966-3.445 1.243-4.474 5.739-1.78 8.22 4.371 4.026 10.778 5.55 16.746 3.398l13.987-5.045c2.32-.837 4.808-.279 6.544 1.241 1.338 1.171 3.216 1.498 4.888.895 3.585-1.293 4.41-5.963 1.519-8.447-4.354-3.742-10.541-5.105-16.318-3.021z" fill="#fff370"/></g><path d="m134.89 287.992h9.921v3.612h-9.921z" fill="#ffc751" transform="matrix(.941 -.339 .339 .941 -90.025 64.635)"/><path d="m118.146 352.438c3.335-3.243 3.681-8.415.944-12.176-2.069-2.844-3.775-6.022-5.027-9.493-5.19-14.39-1.162-29.89 9.029-40.026 3.206-3.188 3.562-8.263.979-11.973l-.104-.15c-3.326-4.776-10.191-5.483-14.318-1.379-15.268 15.184-21.275 38.391-13.487 59.984 1.857 5.148 4.375 9.866 7.426 14.093 3.416 4.734 10.239 5.324 14.423 1.253.044-.044.09-.089.135-.133z" fill="#ffaf40"/><path d="m111.956 321.253c-.653-7.251.813-14.426 4.022-20.727 2.203-4.327.739-9.618-3.36-12.22l-.162-.103c-4.653-2.954-10.893-1.336-13.403 3.57-4.84 9.46-7.05 20.243-6.066 31.15.529 5.865 6.198 9.844 11.88 8.296.061-.017.122-.033.184-.05 4.398-1.199 7.314-5.375 6.905-9.916z" fill="#ffc751"/></g></g><path d="m91.505 338.905c-8.753-24.268-1.411-50.487 16.508-66.924 3.777-3.464 4.169-9.287.962-13.285l-.124-.155c-3.559-4.437-10.121-4.902-14.306-1.049-23.543 21.678-33.177 56.185-21.656 88.128 6.652 18.443 19.279 33.04 34.914 42.406 4.965 2.974 11.417.992 13.878-4.247.028-.06.056-.119.084-.179 2.13-4.533.506-9.959-3.79-12.533-11.853-7.106-21.426-18.176-26.47-32.162z" fill="#fff370"/><path d="m89.729 354.295c3.682-2.686 5.033-7.565 3.221-11.747-.516-1.191-.998-2.405-1.444-3.643-6.905-19.146-3.79-39.503 6.63-55.315 2.579-3.913 2.039-9.093-1.367-12.312-.048-.045-.096-.091-.144-.136-4.488-4.245-11.742-3.415-15.126 1.754-13.631 20.818-17.682 47.565-8.608 72.723.573 1.589 1.191 3.149 1.851 4.68 2.507 5.811 9.715 7.842 14.828 4.113z" fill="#fff7c7"/></g></g><path d="m41.757 341.62v151.374c0 10.497 8.509 19.006 19.006 19.006h364.688c10.497 0 19.006-8.509 19.006-19.006v-151.374z" fill="#5c7064"/><g><g><path d="m177.39 483.626h-83.793c-5.523 0-10-4.477-10-10v-40.431c0-5.523 4.477-10 10-10h83.792c5.523 0 10 4.477 10 10v40.431c.001 5.523-4.476 10-9.999 10z" fill="#48acff"/><path d="m187.385 433.194v40.43c0 5.53-4.47 10-10 10h-83.79c-5.52 0-10-4.47-10-10v-12.89c9.25 6.14 20.35 9.72 32.28 9.72 28.45 0 52.16-20.33 57.39-47.26h4.12c5.53 0 10 4.48 10 10z" fill="#229bff"/></g><path d="m139.555 449.994h-28.529c-7.401 0-13.4-5.999-13.4-13.4 0-7.401 5.999-13.4 13.4-13.4h28.529c7.401 0 13.4 5.999 13.4 13.4 0 7.4-6 13.4-13.4 13.4z" fill="#7cbaf7"/></g><path d="m444.46 341.62v151.37c0 10.5-8.51 19.01-19.01 19.01h-167.6c78.01-13.96 137.22-82.17 137.22-164.2 0-2.07-.04-4.13-.11-6.18z" fill="#4a5955"/><path d="m444.46 436.49v56.5c0 10.5-8.51 19.01-19.01 19.01h-92.71c47.02-8.41 87.21-36.54 111.72-75.51z" fill="#3a4443"/><path d="m338.27 361.548c0-11.006-8.922-19.928-19.928-19.928h-209.606c-11.006 0-19.928 8.922-19.928 19.928 0 11.006 8.922 19.928 19.928 19.928h209.606c11.006-.001 19.928-8.923 19.928-19.928z" fill="#778f85"/><path d="m241.152 341.62h-85.907c-11.006 0-19.928 8.922-19.928 19.928 0 11.006 8.922 19.928 19.928 19.928h85.907c11.006 0 19.928-8.922 19.928-19.928 0-11.006-8.922-19.928-19.928-19.928z" fill="#97b5ae"/><path d="m387.326 102.851-28.94-34.49c-3.73-4.446-10.201-5.423-15.058-2.247-.065.043-.13.085-.195.128-5.767 3.772-6.961 11.725-2.532 17.004l28.941 34.496c3.797 4.526 10.408 5.432 15.278 2.087.065-.044.13-.089.194-.133 5.592-3.839 6.672-11.649 2.312-16.845z" fill="#29e088"/><path d="m373.368 86.217-7.612-9.071c-4.072-4.853-11.306-5.491-16.164-1.425l-.177.148c-4.867 4.073-5.506 11.322-1.427 16.183l7.609 9.07c4.034 4.808 11.179 5.483 16.044 1.518.06-.049.12-.098.18-.147 4.967-4.046 5.665-11.369 1.547-16.276z" fill="#79ff79"/></g></svg>